<svg xmlns="http://www.w3.org/2000/svg" xmlns:xlink="http://www.w3.org/1999/xlink" xmlns:inkscape="http://www.inkscape.org/namespaces/inkscape" version="1.1" width="1400" height="1400" viewBox="0 0 1400 1400">
<defs>
<clipPath id="clip_0">
<path transform="matrix(1,0,0,-1,0,1400)" d="M0 0H1400V1400H0Z"/>
</clipPath>
<clipPath id="clip_1">
<path transform="matrix(1,0,0,-1,0,1400)" d="M0 0H1400V1400H0Z"/>
</clipPath>
</defs>
<g clip-path="url(#clip_0)">
<path transform="matrix(1,0,0,-1,692.2129,1312.6211)" stroke-width="6.327" stroke-linecap="butt" stroke-miterlimit="4" stroke-linejoin="miter" fill="none" stroke="#ffdd1a" d="M0 0C163.307 0 316.84 63.725 432.314 179.437 547.786 295.146 611.378 448.987 611.378 612.621 611.378 776.256 547.786 930.097 432.314 1045.805 316.84 1161.517 163.307 1225.243 0 1225.243-163.308 1225.243-316.84 1161.517-432.314 1045.805-547.786 930.097-611.378 776.256-611.378 612.621-611.378 448.987-547.786 295.146-432.314 179.437-316.84 63.725-163.308 0 0 0Z"/>
<path transform="matrix(1,0,0,-1,692.2129,1299.9483)" stroke-width="6.327" stroke-linecap="butt" stroke-miterlimit="4" stroke-linejoin="miter" fill="none" stroke="#ffdd1a" d="M0 0C159.917 0 310.264 62.404 423.344 175.716 536.427 289.032 598.705 439.694 598.705 599.948 598.705 760.203 536.427 910.865 423.344 1024.181 310.264 1137.493 159.917 1199.897 0 1199.897-159.918 1199.897-310.264 1137.493-423.344 1024.181-536.428 910.865-598.705 760.203-598.705 599.948-598.705 439.694-536.428 289.032-423.344 175.716-310.264 62.404-159.918 0 0 0Z"/>
<text fill="#005982" xml:space="preserve" transform="matrix(.5893325 -.8016779 .8097755 .5952852 0 1400)" font-size="78.60401" font-family="AtkinsonHyperlegible" font-weight="bold"><tspan y="657.1149" x="1763.3574"> </tspan></text>
<text fill="#005982" xml:space="preserve" transform="matrix(.6368659 -.76446256 .7721835 .64329817 0 1400)" font-size="78.60399" font-family="AtkinsonHyperlegible" font-weight="bold"><tspan y="548.2251" x="1824.1235">T</tspan></text>
<text fill="#005982" xml:space="preserve" transform="matrix(.6909625 -.71594086 .723172 .6979417 0 1400)" font-size="78.60398" font-family="AtkinsonHyperlegible" font-weight="bold"><tspan y="411.59779" x="1906.2832">h</tspan></text>
<text fill="#005982" xml:space="preserve" transform="matrix(.74150428 -.66345486 .67015549 .74899378 0 1400)" font-size="78.604" font-family="AtkinsonHyperlegible" font-weight="bold"><tspan y="269.23249" x="1974.0357">e</tspan></text>
<text fill="#005982" xml:space="preserve" transform="matrix(.77687469 -.6216638 .6279434 .7847216 0 1400)" font-size="78.60406" font-family="AtkinsonHyperlegible" font-weight="bold"><tspan y="159.20154" x="2029.2883"> </tspan></text>
<text fill="#005982" xml:space="preserve" transform="matrix(.8134519 -.5729718 .57875916 .8216678 0 1400)" font-size="78.604038" font-family="AtkinsonHyperlegible" font-weight="bold"><tspan y="34.162355" x="2059.055">S</tspan></text>
<text fill="#005982" xml:space="preserve" transform="matrix(.8533407 -.51167246 .51684138 .8619612 0 1400)" font-size="78.604007" font-family="AtkinsonHyperlegible" font-weight="bold"><tspan y="-119.043949" x="2102.7655">o</tspan></text>
<text fill="#005982" xml:space="preserve" transform="matrix(.88863059 -.4475893 .4521107 .8976059 0 1400)" font-size="78.60398" font-family="AtkinsonHyperlegible" font-weight="bold"><tspan y="-274.839" x="2131.374">c</tspan></text>
<text fill="#005982" xml:space="preserve" transform="matrix(.91194716 -.39793519 .40195403 .9211591 0 1400)" font-size="78.60401" font-family="AtkinsonHyperlegible" font-weight="bold"><tspan y="-392.8084" x="2152.4967">i</tspan></text>
<text fill="#005982" xml:space="preserve" transform="matrix(.9324777 -.34710948 .35061563 .9418971 0 1400)" font-size="78.60403" font-family="AtkinsonHyperlegible" font-weight="bold"><tspan y="-511.29383" x="2150.9415">e</tspan></text>
<text fill="#005982" xml:space="preserve" transform="matrix(.9519439 -.28948526 .29241006 .96156039 0 1400)" font-size="78.604007" font-family="AtkinsonHyperlegible" font-weight="bold"><tspan y="-643.0349" x="2158.42">t</tspan></text>
<text fill="#005982" xml:space="preserve" transform="matrix(.9663986 -.23679838 .23919137 .9761602 0 1400)" font-size="78.604007" font-family="AtkinsonHyperlegible" font-weight="bold"><tspan y="-761.2252" x="2148.1143">y</tspan></text>
<text fill="#005982" xml:space="preserve" transform="matrix(.9767825 -.18945985 .19137451 .98664978 0 1400)" font-size="78.60399" font-family="AtkinsonHyperlegible" font-weight="bold"><tspan y="-865.6409" x="2147.8765"> </tspan></text>
<text fill="#005982" xml:space="preserve" transform="matrix(.9865251 -.1294909 .13079871 .99649026 0 1400)" font-size="78.60398" font-family="AtkinsonHyperlegible" font-weight="bold"><tspan y="-995.5934" x="2114.251">o</tspan></text>
<text fill="#005982" xml:space="preserve" transform="matrix(.9921659 -.07488297 .075639929 1.0021871 0 1400)" font-size="78.60399" font-family="AtkinsonHyperlegible" font-weight="bold"><tspan y="-1111.725" x="2099.3958">f</tspan></text>
<text fill="#005982" xml:space="preserve" transform="matrix(.99446859 -.032124327 .032450007 1.004514 0 1400)" font-size="78.60399" font-family="AtkinsonHyperlegible" font-weight="bold"><tspan y="-1201.213" x="2077.2322"> </tspan></text>
<text fill="#005982" xml:space="preserve" transform="matrix(.9943601 .03532771 -.035683928 1.0044042 0 1400)" font-size="78.60402" font-family="AtkinsonHyperlegible" font-weight="bold"><tspan y="-1339.8235" x="2013.7407">D</tspan></text>
<text fill="#005982" xml:space="preserve" transform="matrix(.99028137 .096655357 -.09763241 1.0002847 0 1400)" font-size="78.60403" font-family="AtkinsonHyperlegible" font-weight="bold"><tspan y="-1463.108" x="1978.4713">i</tspan></text>
<text fill="#005982" xml:space="preserve" transform="matrix(.98336717 .15162458 -.15315631 .9932992 0 1400)" font-size="78.60401" font-family="AtkinsonHyperlegible" font-weight="bold"><tspan y="-1571.3649" x="1916.6868">s</tspan></text>
<text fill="#005982" xml:space="preserve" transform="matrix(.96939346 .2242265 -.22649104 .97918429 0 1400)" font-size="78.604" font-family="AtkinsonHyperlegible" font-weight="bold"><tspan y="-1710.992" x="1833.5737">a</tspan></text>
<text fill="#005982" xml:space="preserve" transform="matrix(.95005849 .29561473 -.29860059 .95965597 0 1400)" font-size="78.604007" font-family="AtkinsonHyperlegible" font-weight="bold"><tspan y="-1844.404" x="1741.2622">b</tspan></text>
<text fill="#005982" xml:space="preserve" transform="matrix(.93211528 .34808148 -.35159783 .9415309 0 1400)" font-size="78.60401" font-family="AtkinsonHyperlegible" font-weight="bold"><tspan y="-1939.8634" x="1680.3816">l</tspan></text>
<text fill="#005982" xml:space="preserve" transform="matrix(.9088124 .40504424 -.40913559 .9179913 0 1400)" font-size="78.60401" font-family="AtkinsonHyperlegible" font-weight="bold"><tspan y="-2040.8445" x="1579.2625">e</tspan></text>
<text fill="#005982" xml:space="preserve" transform="matrix(.8763408 .4711973 -.47595666 .8851927 0 1400)" font-size="78.60401" font-family="AtkinsonHyperlegible" font-weight="bold"><tspan y="-2154.3765" x="1464.9169">d</tspan></text>
<text fill="#005982" xml:space="preserve" transform="matrix(.84890606 .5189966 -.5242393 .8574819 0 1400)" font-size="78.60399" font-family="AtkinsonHyperlegible" font-weight="bold"><tspan y="-2233.6768" x="1387.8074"> </tspan></text>
<text fill="#005982" xml:space="preserve" transform="matrix(.81895568 .56507679 -.5707851 .8272275 0 1400)" font-size="78.60401" font-family="AtkinsonHyperlegible" font-weight="bold"><tspan y="-2307.7274" x="1285.0712">J</tspan></text>
<text fill="#005982" xml:space="preserve" transform="matrix(.7750305 .6239618 -.63026437 .7828584 0 1400)" font-size="78.604007" font-family="AtkinsonHyperlegible" font-weight="bold"><tspan y="-2398.4967" x="1151.6846">o</tspan></text>
<text fill="#005982" xml:space="preserve" transform="matrix(.72671106 .6796257 -.6864905 .7340517 0 1400)" font-size="78.604007" font-family="AtkinsonHyperlegible" font-weight="bold"><tspan y="-2479.6185" x="1012.2833">u</tspan></text>
<text fill="#005982" xml:space="preserve" transform="matrix(.68329736 .7232597 -.7305659 .690199 0 1400)" font-size="78.604" font-family="AtkinsonHyperlegible" font-weight="bold"><tspan y="-2539.3819" x="898.8152">r</tspan></text>
<text fill="#005982" xml:space="preserve" transform="matrix(.6419404 .7602054 -.7678844 .64842489 0 1400)" font-size="78.60402" font-family="AtkinsonHyperlegible" font-weight="bold"><tspan y="-2586.795" x="782.53067">n</tspan></text>
<text fill="#005982" xml:space="preserve" transform="matrix(.58369806 .8057897 -.813928 .58959469 0 1400)" font-size="78.604007" font-family="AtkinsonHyperlegible" font-weight="bold"><tspan y="-2640.2974" x="629.3035">a</tspan></text>
<text fill="#005982" xml:space="preserve" transform="matrix(.53789529 .8370596 -.8455146 .5433288 0 1400)" font-size="78.603969" font-family="AtkinsonHyperlegible" font-weight="bold"><tspan y="-2672.9464" x="521.57009">l</tspan></text>
<text fill="#005982" xml:space="preserve" transform="matrix(.5064423 .856455 -.86510726 .5115578 0 1400)" font-size="78.60401" font-family="AtkinsonHyperlegible" font-weight="bold"><tspan y="-2691.09" x="442.9732">i</tspan></text>
<text fill="#005982" xml:space="preserve" transform="matrix(.4580147 .88330206 -.892224 .46264173 0 1400)" font-size="78.60403" font-family="AtkinsonHyperlegible" font-weight="bold"><tspan y="-2712.8275" x="314.62019">s</tspan></text>
<text fill="#005982" xml:space="preserve" transform="matrix(.40264748 .9098761 -.9190678 .4067134 0 1400)" font-size="78.604" font-family="AtkinsonHyperlegible" font-weight="bold"><tspan y="-2729.2139" x="185.47644">t</tspan></text>
<text fill="#005982" xml:space="preserve" transform="matrix(.35161678 .930788 -.9401896 .3551675 0 1400)" font-size="78.60404" font-family="AtkinsonHyperlegible" font-weight="bold"><tspan y="-2736.9698" x="61.03064">s</tspan></text>
<text fill="#ffffff" xml:space="preserve" transform="matrix(.45515225 .8847804 -.8937176 .45974998 0 1400)" font-size="78.60403" font-family="AtkinsonHyperlegible" font-weight="bold"><tspan y="-311.24983" x="-317.242"> </tspan></text>
<text fill="#ffffff" xml:space="preserve" transform="matrix(.4982288 .8612597 -.869959 .50326159 0 1400)" font-size="78.60405" font-family="AtkinsonHyperlegible" font-weight="bold"><tspan y="-325.0385" x="-273.71376"> </tspan></text>
<text fill="#ffffff" xml:space="preserve" transform="matrix(.5348876 .8389842 -.84745958 .54029068 0 1400)" font-size="78.60399" font-family="AtkinsonHyperlegible" font-weight="bold"><tspan y="-335.20027" x="-231.88191"> </tspan></text>
<text fill="#ffffff" xml:space="preserve" transform="matrix(.59036067 .8009212 -.8090111 .59632346 0 1400)" font-size="78.60399" font-family="AtkinsonHyperlegible" font-weight="bold"><tspan y="-347.53306" x="-180.22812">N</tspan></text>
<text fill="#ffffff" xml:space="preserve" transform="matrix(.65680238 .747402 -.75495257 .6634369 0 1400)" font-size="78.60401" font-family="AtkinsonHyperlegible" font-weight="bold"><tspan y="-356.7563" x="-90.84689">o</tspan></text>
<text fill="#ffffff" xml:space="preserve" transform="matrix(.6968284 .7102323 -.7174063 .70386758 0 1400)" font-size="78.604" font-family="AtkinsonHyperlegible" font-weight="bold"><tspan y="-358.85368" x="-23.232926"> </tspan></text>
<text fill="#ffffff" xml:space="preserve" transform="matrix(.74283739 .66196116 -.6686478 .7503409 0 1400)" font-size="78.60401" font-family="AtkinsonHyperlegible" font-weight="bold"><tspan y="-357.37599" x="29.335679">N</tspan></text>
<text fill="#ffffff" xml:space="preserve" transform="matrix(.7967266 .5960091 -.60202917 .8047745 0 1400)" font-size="78.604007" font-family="AtkinsonHyperlegible" font-weight="bold"><tspan y="-349.03736" x="118.75168">e</tspan></text>
<text fill="#ffffff" xml:space="preserve" transform="matrix(.8449008 .52549228 -.5307998 .85343608 0 1400)" font-size="78.60402" font-family="AtkinsonHyperlegible" font-weight="bold"><tspan y="-333.47764" x="196.68442">w</tspan></text>
<text fill="#ffffff" xml:space="preserve" transform="matrix(.8869092 .45098985 -.4555456 .895868 0 1400)" font-size="78.60399" font-family="AtkinsonHyperlegible" font-weight="bold"><tspan y="-310.79377" x="285.34056">s</tspan></text>
<text fill="#ffffff" xml:space="preserve" transform="matrix(.91048106 .40127833 -.40533156 .9196778 0 1400)" font-size="78.60405" font-family="AtkinsonHyperlegible" font-weight="bold"><tspan y="-292.53114" x="346.90034"> </tspan></text>
<text fill="#ffffff" xml:space="preserve" transform="matrix(.93550059 .33887962 -.34230314 .94494917 0 1400)" font-size="78.60402" font-family="AtkinsonHyperlegible" font-weight="bold"><tspan y="-266.41139" x="394.30488">A</tspan></text>
<text fill="#ffffff" xml:space="preserve" transform="matrix(.9611331 .25733937 -.25993846 .9708413 0 1400)" font-size="78.60399" font-family="AtkinsonHyperlegible" font-weight="bold"><tspan y="-227.34305" x="473.8129">b</tspan></text>
<text fill="#ffffff" xml:space="preserve" transform="matrix(.97856077 .18005443 -.1818724 .9884445 0 1400)" font-size="78.60401" font-family="AtkinsonHyperlegible" font-weight="bold"><tspan y="-185.50963" x="540.88296">o</tspan></text>
<text fill="#ffffff" xml:space="preserve" transform="matrix(.98976126 .101843398 -.10287261 .9997594 0 1400)" font-size="78.60401" font-family="AtkinsonHyperlegible" font-weight="bold"><tspan y="-138.66046" x="602.5367">u</tspan></text>
<text fill="#ffffff" xml:space="preserve" transform="matrix(.9941249 .04142155 -.041840108 1.0041665 0 1400)" font-size="78.604007" font-family="AtkinsonHyperlegible" font-weight="bold"><tspan y="-99.43218" x="657.6035">t</tspan></text>
<text fill="#ffffff" xml:space="preserve" transform="matrix(.9949871 -.00084601258 .0008536458 1.0050374 0 1400)" font-size="78.604038" font-family="AtkinsonHyperlegible" font-weight="bold"><tspan y="-70.43255" x="693.3246"> </tspan></text>
<text fill="#ffffff" xml:space="preserve" transform="matrix(.9927081 -.06730957 .0679902 1.0027356 0 1400)" font-size="78.60397" font-family="AtkinsonHyperlegible" font-weight="bold"><tspan y="-22.231122" x="724.75979">U</tspan></text>
<text fill="#ffffff" xml:space="preserve" transform="matrix(.98425397 -.1457572 .14722914 .99419489 0 1400)" font-size="78.604007" font-family="AtkinsonHyperlegible" font-weight="bold"><tspan y="38.74395" x="779.3402">s</tspan></text>
<text fill="#ffffff" xml:space="preserve" transform="matrix(.97473946 -.19970872 .20172514 .98458507 0 1400)" font-size="78.60398" font-family="AtkinsonHyperlegible" font-weight="bold"><tspan y="83.284519" x="820.64816"> </tspan></text>
<text fill="#ffffff" xml:space="preserve" transform="matrix(.95574536 -.2766768 .2794718 .9654001 0 1400)" font-size="78.60399" font-family="AtkinsonHyperlegible" font-weight="bold"><tspan y="150.62293" x="839.98867">W</tspan></text>
<text fill="#ffffff" xml:space="preserve" transform="matrix(.93064197 -.35200236 .35555817 .94004228 0 1400)" font-size="78.60402" font-family="AtkinsonHyperlegible" font-weight="bold"><tspan y="221.0813" x="898.01089">i</tspan></text>
<text fill="#ffffff" xml:space="preserve" transform="matrix(.91222336 -.39730168 .4013142 .9214379 0 1400)" font-size="78.604" font-family="AtkinsonHyperlegible" font-weight="bold"><tspan y="265.77833" x="913.1948">t</tspan></text>
<text fill="#ffffff" xml:space="preserve" transform="matrix(.8833079 -.4580036 .46263064 .89222976 0 1400)" font-size="78.603969" font-family="AtkinsonHyperlegible" font-weight="bold"><tspan y="328.63447" x="925.85507">h</tspan></text>
<text fill="#ffffff" xml:space="preserve" transform="matrix(.84718587 -.5218004 .5270711 .85574397 0 1400)" font-size="78.604007" font-family="AtkinsonHyperlegible" font-weight="bold"><tspan y="398.71528" x="946.48886">o</tspan></text>
<text fill="#ffffff" xml:space="preserve" transform="matrix(.80651977 -.58268776 .5885742 .8146669 0 1400)" font-size="78.60403" font-family="AtkinsonHyperlegible" font-weight="bold"><tspan y="469.9492" x="962.6091">u</tspan></text>
<text fill="#ffffff" xml:space="preserve" transform="matrix(.7654879 -.6356319 .6420527 .77322039 0 1400)" font-size="78.60398" font-family="AtkinsonHyperlegible" font-weight="bold"><tspan y="535.8788" x="976.36099">t</tspan></text>
<text fill="#ffffff" xml:space="preserve" transform="matrix(.73762229 -.6677671 .6745123 .74507358 0 1400)" font-size="78.60405" font-family="AtkinsonHyperlegible" font-weight="bold"><tspan y="577.9805" x="984.3904"> </tspan></text>
<text fill="#ffffff" xml:space="preserve" transform="matrix(.6912538 -.7156597 .7228883 .69823566 0 1400)" font-size="78.60398" font-family="AtkinsonHyperlegible" font-weight="bold"><tspan y="644.13656" x="971.32467">U</tspan></text>
<text fill="#ffffff" xml:space="preserve" transform="matrix(.6322859 -.7682549 .776014 .6386724 0 1400)" font-size="78.604" font-family="AtkinsonHyperlegible" font-weight="bold"><tspan y="722.45236" x="971.71768">s</tspan></text>
</g>
<text fill="#005982" xml:space="preserve" transform="matrix(.45515225 .8847804 -.8937176 .45974998 0 1400)" font-size="78.60403" font-family="AtkinsonHyperlegible" font-weight="bold"><tspan y="-311.24983" x="-317.242"> </tspan></text>
<text fill="#005982" xml:space="preserve" transform="matrix(.4982288 .8612597 -.869959 .50326159 0 1400)" font-size="78.60405" font-family="AtkinsonHyperlegible" font-weight="bold"><tspan y="-325.0385" x="-273.71376"> </tspan></text>
<text fill="#005982" xml:space="preserve" transform="matrix(.5348876 .8389842 -.84745958 .54029068 0 1400)" font-size="78.60399" font-family="AtkinsonHyperlegible" font-weight="bold"><tspan y="-335.20027" x="-231.88191"> </tspan></text>
<text fill="#005982" xml:space="preserve" transform="matrix(.59036067 .8009212 -.8090111 .59632346 0 1400)" font-size="78.60399" font-family="AtkinsonHyperlegible" font-weight="bold"><tspan y="-347.53306" x="-180.22812">N</tspan></text>
<text fill="#005982" xml:space="preserve" transform="matrix(.65680238 .747402 -.75495257 .6634369 0 1400)" font-size="78.60401" font-family="AtkinsonHyperlegible" font-weight="bold"><tspan y="-356.7563" x="-90.84689">o</tspan></text>
<text fill="#005982" xml:space="preserve" transform="matrix(.6968284 .7102323 -.7174063 .70386758 0 1400)" font-size="78.604" font-family="AtkinsonHyperlegible" font-weight="bold"><tspan y="-358.85368" x="-23.232926"> </tspan></text>
<text fill="#005982" xml:space="preserve" transform="matrix(.74283739 .66196116 -.6686478 .7503409 0 1400)" font-size="78.60401" font-family="AtkinsonHyperlegible" font-weight="bold"><tspan y="-357.37599" x="29.335679">N</tspan></text>
<text fill="#005982" xml:space="preserve" transform="matrix(.7967266 .5960091 -.60202917 .8047745 0 1400)" font-size="78.604007" font-family="AtkinsonHyperlegible" font-weight="bold"><tspan y="-349.03736" x="118.75168">e</tspan></text>
<text fill="#005982" xml:space="preserve" transform="matrix(.8449008 .52549228 -.5307998 .85343608 0 1400)" font-size="78.60402" font-family="AtkinsonHyperlegible" font-weight="bold"><tspan y="-333.47764" x="196.68442">w</tspan></text>
<text fill="#005982" xml:space="preserve" transform="matrix(.8869092 .45098985 -.4555456 .895868 0 1400)" font-size="78.60399" font-family="AtkinsonHyperlegible" font-weight="bold"><tspan y="-310.79377" x="285.34056">s</tspan></text>
<text fill="#005982" xml:space="preserve" transform="matrix(.91048106 .40127833 -.40533156 .9196778 0 1400)" font-size="78.60405" font-family="AtkinsonHyperlegible" font-weight="bold"><tspan y="-292.53114" x="346.90034"> </tspan></text>
<text fill="#005982" xml:space="preserve" transform="matrix(.93550059 .33887962 -.34230314 .94494917 0 1400)" font-size="78.60402" font-family="AtkinsonHyperlegible" font-weight="bold"><tspan y="-266.41139" x="394.30488">A</tspan></text>
<text fill="#005982" xml:space="preserve" transform="matrix(.9611331 .25733937 -.25993846 .9708413 0 1400)" font-size="78.60399" font-family="AtkinsonHyperlegible" font-weight="bold"><tspan y="-227.34305" x="473.8129">b</tspan></text>
<text fill="#005982" xml:space="preserve" transform="matrix(.97856077 .18005443 -.1818724 .9884445 0 1400)" font-size="78.60401" font-family="AtkinsonHyperlegible" font-weight="bold"><tspan y="-185.50963" x="540.88296">o</tspan></text>
<text fill="#005982" xml:space="preserve" transform="matrix(.98976126 .101843398 -.10287261 .9997594 0 1400)" font-size="78.60401" font-family="AtkinsonHyperlegible" font-weight="bold"><tspan y="-138.66046" x="602.5367">u</tspan></text>
<text fill="#005982" xml:space="preserve" transform="matrix(.9941249 .04142155 -.041840108 1.0041665 0 1400)" font-size="78.604007" font-family="AtkinsonHyperlegible" font-weight="bold"><tspan y="-99.43218" x="657.6035">t</tspan></text>
<text fill="#005982" xml:space="preserve" transform="matrix(.9949871 -.00084601258 .0008536458 1.0050374 0 1400)" font-size="78.604038" font-family="AtkinsonHyperlegible" font-weight="bold"><tspan y="-70.43255" x="693.3246"> </tspan></text>
<text fill="#005982" xml:space="preserve" transform="matrix(.9927081 -.06730957 .0679902 1.0027356 0 1400)" font-size="78.60397" font-family="AtkinsonHyperlegible" font-weight="bold"><tspan y="-22.231122" x="724.75979">U</tspan></text>
<text fill="#005982" xml:space="preserve" transform="matrix(.98425397 -.1457572 .14722914 .99419489 0 1400)" font-size="78.604007" font-family="AtkinsonHyperlegible" font-weight="bold"><tspan y="38.74395" x="779.3402">s</tspan></text>
<text fill="#005982" xml:space="preserve" transform="matrix(.97473946 -.19970872 .20172514 .98458507 0 1400)" font-size="78.60398" font-family="AtkinsonHyperlegible" font-weight="bold"><tspan y="83.284519" x="820.64816"> </tspan></text>
<text fill="#005982" xml:space="preserve" transform="matrix(.95574536 -.2766768 .2794718 .9654001 0 1400)" font-size="78.60399" font-family="AtkinsonHyperlegible" font-weight="bold"><tspan y="150.62293" x="839.98867">W</tspan></text>
<text fill="#005982" xml:space="preserve" transform="matrix(.93064197 -.35200236 .35555817 .94004228 0 1400)" font-size="78.60402" font-family="AtkinsonHyperlegible" font-weight="bold"><tspan y="221.0813" x="898.01089">i</tspan></text>
<text fill="#005982" xml:space="preserve" transform="matrix(.91222336 -.39730168 .4013142 .9214379 0 1400)" font-size="78.604" font-family="AtkinsonHyperlegible" font-weight="bold"><tspan y="265.77833" x="913.1948">t</tspan></text>
<text fill="#005982" xml:space="preserve" transform="matrix(.8833079 -.4580036 .46263064 .89222976 0 1400)" font-size="78.603969" font-family="AtkinsonHyperlegible" font-weight="bold"><tspan y="328.63447" x="925.85507">h</tspan></text>
<text fill="#005982" xml:space="preserve" transform="matrix(.84718587 -.5218004 .5270711 .85574397 0 1400)" font-size="78.604007" font-family="AtkinsonHyperlegible" font-weight="bold"><tspan y="398.71528" x="946.48886">o</tspan></text>
<text fill="#005982" xml:space="preserve" transform="matrix(.80651977 -.58268776 .5885742 .8146669 0 1400)" font-size="78.60403" font-family="AtkinsonHyperlegible" font-weight="bold"><tspan y="469.9492" x="962.6091">u</tspan></text>
<text fill="#005982" xml:space="preserve" transform="matrix(.7654879 -.6356319 .6420527 .77322039 0 1400)" font-size="78.60398" font-family="AtkinsonHyperlegible" font-weight="bold"><tspan y="535.8788" x="976.36099">t</tspan></text>
<text fill="#005982" xml:space="preserve" transform="matrix(.73762229 -.6677671 .6745123 .74507358 0 1400)" font-size="78.60405" font-family="AtkinsonHyperlegible" font-weight="bold"><tspan y="577.9805" x="984.3904"> </tspan></text>
<text fill="#005982" xml:space="preserve" transform="matrix(.6912538 -.7156597 .7228883 .69823566 0 1400)" font-size="78.60398" font-family="AtkinsonHyperlegible" font-weight="bold"><tspan y="644.13656" x="971.32467">U</tspan></text>
<text fill="#005982" xml:space="preserve" transform="matrix(.6322859 -.7682549 .776014 .6386724 0 1400)" font-size="78.604" font-family="AtkinsonHyperlegible" font-weight="bold"><tspan y="722.45236" x="971.71768">s</tspan></text>
<text fill="#005982" xml:space="preserve" transform="matrix(1 0 -0 1 0 1400)" font-size="600" font-family="Impact"><tspan y="-478.6836" x="219.0797 589.2797 981.0798">SDJ</tspan></text>
<g clip-path="url(#clip_1)">
<text fill="#ffffff" xml:space="preserve" transform="matrix(.5177673 -.8496574 .85823968 .52299609 0 1400)" font-size="78.604038" font-family="AtkinsonHyperlegible" font-weight="bold"><tspan y="-343.63645" x="937.0591">T</tspan></text>
<text fill="#ffffff" xml:space="preserve" transform="matrix(.57903286 -.8091483 .81732097 .5848824 0 1400)" font-size="78.604007" font-family="AtkinsonHyperlegible" font-weight="bold"><tspan y="-414.66804" x="955.4647">h</tspan></text>
<text fill="#ffffff" xml:space="preserve" transform="matrix(.63697507 -.7643705 .77209147 .6434098 0 1400)" font-size="78.60403" font-family="AtkinsonHyperlegible" font-weight="bold"><tspan y="-486.35939" x="964.49459">e</tspan></text>
<text fill="#ffffff" xml:space="preserve" transform="matrix(.6780441 -.72818657 .7355424 .6848936 0 1400)" font-size="78.604038" font-family="AtkinsonHyperlegible" font-weight="bold"><tspan y="-540.28079" x="979.30758"> </tspan></text>
<text fill="#ffffff" xml:space="preserve" transform="matrix(.7211197 -.68555536 .6924812 .72840306 0 1400)" font-size="78.60401" font-family="AtkinsonHyperlegible" font-weight="bold"><tspan y="-600.1157" x="968.0175">S</tspan></text>
<text fill="#ffffff" xml:space="preserve" transform="matrix(.77320137 -.6262266 .63255199 .7810114 0 1400)" font-size="78.60397" font-family="AtkinsonHyperlegible" font-weight="bold"><tspan y="-677.9123" x="963.435">o</tspan></text>
<text fill="#ffffff" xml:space="preserve" transform="matrix(.8135985 -.57276347 .5785494 .8218156 0 1400)" font-size="78.604007" font-family="AtkinsonHyperlegible" font-weight="bold"><tspan y="-743.4695" x="958.52847">c</tspan></text>
<text fill="#ffffff" xml:space="preserve" transform="matrix(.8439633 -.5269973 .5323215 .85248717 0 1400)" font-size="78.604007" font-family="AtkinsonHyperlegible" font-weight="bold"><tspan y="-796.6527" x="955.29507">i</tspan></text>
<text fill="#ffffff" xml:space="preserve" transform="matrix(.87178269 -.47957746 .48442198 .8805888 0 1400)" font-size="78.60399" font-family="AtkinsonHyperlegible" font-weight="bold"><tspan y="-849.2158" x="932.94686">e</tspan></text>
<text fill="#ffffff" xml:space="preserve" transform="matrix(.90217939 -.41960974 .4238487 .91129216 0 1400)" font-size="78.604" font-family="AtkinsonHyperlegible" font-weight="bold"><tspan y="-912.3461" x="915.69949">t</tspan></text>
<text fill="#ffffff" xml:space="preserve" transform="matrix(.9239923 -.3691033 .37283213 .93332639 0 1400)" font-size="78.60401" font-family="AtkinsonHyperlegible" font-weight="bold"><tspan y="-962.8688" x="891.9435">y</tspan></text>
<text fill="#ffffff" xml:space="preserve" transform="matrix(.9429752 -.3174865 .3206937 .9525002 0 1400)" font-size="78.60397" font-family="AtkinsonHyperlegible" font-weight="bold"><tspan y="-1012.1813" x="876.3435"> </tspan></text>
<text fill="#ffffff" xml:space="preserve" transform="matrix(.96067366 -.2590504 .26166607 .9703767 0 1400)" font-size="78.60401" font-family="AtkinsonHyperlegible" font-weight="bold"><tspan y="-1065.3495" x="835.7068">o</tspan></text>
<text fill="#ffffff" xml:space="preserve" transform="matrix(.9747377 -.19971624 .20173395 .9845832 0 1400)" font-size="78.60402" font-family="AtkinsonHyperlegible" font-weight="bold"><tspan y="-1116.6005" x="811.816">f</tspan></text>
<text fill="#ffffff" xml:space="preserve" transform="matrix(.9823965 -.1577884 .15938246 .99231967 0 1400)" font-size="78.604007" font-family="AtkinsonHyperlegible" font-weight="bold"><tspan y="-1151.2219" x="790.8686"> </tspan></text>
<text fill="#ffffff" xml:space="preserve" transform="matrix(.99077269 -.091487709 .09241259 1.0007798 0 1400)" font-size="78.604007" font-family="AtkinsonHyperlegible" font-weight="bold"><tspan y="-1203.3632" x="734.54196">D</tspan></text>
<text fill="#ffffff" xml:space="preserve" transform="matrix(.99450328 -.031041692 .031355926 1.0045486 0 1400)" font-size="78.603969" font-family="AtkinsonHyperlegible" font-weight="bold"><tspan y="-1248.1984" x="711.40768">i</tspan></text>
<text fill="#ffffff" xml:space="preserve" transform="matrix(.9947151 .023299067 -.023534423 1.0047617 0 1400)" font-size="78.60401" font-family="AtkinsonHyperlegible" font-weight="bold"><tspan y="-1286.3442" x="665.10189">s</tspan></text>
<text fill="#ffffff" xml:space="preserve" transform="matrix(.99092939 .08977026 -.090677339 1.000939 0 1400)" font-size="78.60399" font-family="AtkinsonHyperlegible" font-weight="bold"><tspan y="-1330.2284" x="617.0458">a</tspan></text>
<text fill="#ffffff" xml:space="preserve" transform="matrix(.98169896 .1620731 -.16371043 .9916145 0 1400)" font-size="78.604038" font-family="AtkinsonHyperlegible" font-weight="bold"><tspan y="-1374.4257" x="558.21">b</tspan></text>
<text fill="#ffffff" xml:space="preserve" transform="matrix(.96994426 .22182969 -.22407002 .9797414 0 1400)" font-size="78.604007" font-family="AtkinsonHyperlegible" font-weight="bold"><tspan y="-1408.0774" x="517.6416">l</tspan></text>
<text fill="#ffffff" xml:space="preserve" transform="matrix(.9562321 .27499224 -.27776946 .9658906 0 1400)" font-size="78.604038" font-family="AtkinsonHyperlegible" font-weight="bold"><tspan y="-1435.7363" x="461.888">e</tspan></text>
<text fill="#ffffff" xml:space="preserve" transform="matrix(.93126288 .35035617 -.35389544 .94066956 0 1400)" font-size="78.60401" font-family="AtkinsonHyperlegible" font-weight="bold"><tspan y="-1471.0759" x="387.1326">d</tspan></text>
<text fill="#ffffff" xml:space="preserve" transform="matrix(.90799418 .4068748 -.410984 .91716548 0 1400)" font-size="78.604038" font-family="AtkinsonHyperlegible" font-weight="bold"><tspan y="-1494.3917" x="340.56169"> </tspan></text>
<text fill="#ffffff" xml:space="preserve" transform="matrix(.8841167 .4564399 -.46105037 .8930475 0 1400)" font-size="78.60399" font-family="AtkinsonHyperlegible" font-weight="bold"><tspan y="-1512.4092" x="280.552">J</tspan></text>
<text fill="#ffffff" xml:space="preserve" transform="matrix(.84810659 .52030286 -.5255583 .85667356 0 1400)" font-size="78.604038" font-family="AtkinsonHyperlegible" font-weight="bold"><tspan y="-1531.9591" x="209.39929">o</tspan></text>
<text fill="#ffffff" xml:space="preserve" transform="matrix(.8075429 .58126947 -.5871406 .8157003 0 1400)" font-size="78.604" font-family="AtkinsonHyperlegible" font-weight="bold"><tspan y="-1546.3076" x="138.14966">u</tspan></text>
<text fill="#ffffff" xml:space="preserve" transform="matrix(.77046206 .6295939 -.6359536 .7782441 0 1400)" font-size="78.604007" font-family="AtkinsonHyperlegible" font-weight="bold"><tspan y="-1554.2468" x="85.68176">r</tspan></text>
<text fill="#ffffff" xml:space="preserve" transform="matrix(.7305942 .6754494 -.6822722 .7379742 0 1400)" font-size="78.603969" font-family="AtkinsonHyperlegible" font-weight="bold"><tspan y="-1558.5205" x="17.518128">n</tspan></text>
<text fill="#ffffff" xml:space="preserve" transform="matrix(.6793087 .72700729 -.73435047 .68617096 0 1400)" font-size="78.60403" font-family="AtkinsonHyperlegible" font-weight="bold"><tspan y="-1558.8325" x="-54.43445">a</tspan></text>
<text fill="#ffffff" xml:space="preserve" transform="matrix(.63831898 .76324906 -.77095857 .64476647 0 1400)" font-size="78.603969" font-family="AtkinsonHyperlegible" font-weight="bold"><tspan y="-1555.6139" x="-99.03137">l</tspan></text>
<text fill="#ffffff" xml:space="preserve" transform="matrix(.6098351 .78619369 -.794136 .61599507 0 1400)" font-size="78.60404" font-family="AtkinsonHyperlegible" font-weight="bold"><tspan y="-1551.8134" x="-134.68036">i</tspan></text>
<text fill="#ffffff" xml:space="preserve" transform="matrix(.5654763 .8186797 -.826949 .57118847 0 1400)" font-size="78.604007" font-family="AtkinsonHyperlegible" font-weight="bold"><tspan y="-1543.6203" x="-197.49683">s</tspan></text>
<text fill="#ffffff" xml:space="preserve" transform="matrix(.5140552 .8519082 -.8605133 .51924708 0 1400)" font-size="78.60401" font-family="AtkinsonHyperlegible" font-weight="bold"><tspan y="-1531.0189" x="-252.49335">t</tspan></text>
<text fill="#ffffff" xml:space="preserve" transform="matrix(.46602444 .8791024 -.8879824 .47073157 0 1400)" font-size="78.604038" font-family="AtkinsonHyperlegible" font-weight="bold"><tspan y="-1516.5476" x="-309.28474">s</tspan></text>
</g>
<text fill="#005982" xml:space="preserve" transform="matrix(.5177673 -.8496574 .85823968 .52299609 0 1400)" font-size="78.604038" font-family="AtkinsonHyperlegible" font-weight="bold"><tspan y="-343.63645" x="937.0591">T</tspan></text>
<text fill="#005982" xml:space="preserve" transform="matrix(.57903286 -.8091483 .81732097 .5848824 0 1400)" font-size="78.604007" font-family="AtkinsonHyperlegible" font-weight="bold"><tspan y="-414.66804" x="955.4647">h</tspan></text>
<text fill="#005982" xml:space="preserve" transform="matrix(.63697507 -.7643705 .77209147 .6434098 0 1400)" font-size="78.60403" font-family="AtkinsonHyperlegible" font-weight="bold"><tspan y="-486.35939" x="964.49459">e</tspan></text>
<text fill="#005982" xml:space="preserve" transform="matrix(.6780441 -.72818657 .7355424 .6848936 0 1400)" font-size="78.604038" font-family="AtkinsonHyperlegible" font-weight="bold"><tspan y="-540.28079" x="979.30758"> </tspan></text>
<text fill="#005982" xml:space="preserve" transform="matrix(.7211197 -.68555536 .6924812 .72840306 0 1400)" font-size="78.60401" font-family="AtkinsonHyperlegible" font-weight="bold"><tspan y="-600.1157" x="968.0175">S</tspan></text>
<text fill="#005982" xml:space="preserve" transform="matrix(.77320137 -.6262266 .63255199 .7810114 0 1400)" font-size="78.60397" font-family="AtkinsonHyperlegible" font-weight="bold"><tspan y="-677.9123" x="963.435">o</tspan></text>
<text fill="#005982" xml:space="preserve" transform="matrix(.8135985 -.57276347 .5785494 .8218156 0 1400)" font-size="78.604007" font-family="AtkinsonHyperlegible" font-weight="bold"><tspan y="-743.4695" x="958.52847">c</tspan></text>
<text fill="#005982" xml:space="preserve" transform="matrix(.8439633 -.5269973 .5323215 .85248717 0 1400)" font-size="78.604007" font-family="AtkinsonHyperlegible" font-weight="bold"><tspan y="-796.6527" x="955.29507">i</tspan></text>
<text fill="#005982" xml:space="preserve" transform="matrix(.87178269 -.47957746 .48442198 .8805888 0 1400)" font-size="78.60399" font-family="AtkinsonHyperlegible" font-weight="bold"><tspan y="-849.2158" x="932.94686">e</tspan></text>
<text fill="#005982" xml:space="preserve" transform="matrix(.90217939 -.41960974 .4238487 .91129216 0 1400)" font-size="78.604" font-family="AtkinsonHyperlegible" font-weight="bold"><tspan y="-912.3461" x="915.69949">t</tspan></text>
<text fill="#005982" xml:space="preserve" transform="matrix(.9239923 -.3691033 .37283213 .93332639 0 1400)" font-size="78.60401" font-family="AtkinsonHyperlegible" font-weight="bold"><tspan y="-962.8688" x="891.9435">y</tspan></text>
<text fill="#005982" xml:space="preserve" transform="matrix(.9429752 -.3174865 .3206937 .9525002 0 1400)" font-size="78.60397" font-family="AtkinsonHyperlegible" font-weight="bold"><tspan y="-1012.1813" x="876.3435"> </tspan></text>
<text fill="#005982" xml:space="preserve" transform="matrix(.96067366 -.2590504 .26166607 .9703767 0 1400)" font-size="78.60401" font-family="AtkinsonHyperlegible" font-weight="bold"><tspan y="-1065.3495" x="835.7068">o</tspan></text>
<text fill="#005982" xml:space="preserve" transform="matrix(.9747377 -.19971624 .20173395 .9845832 0 1400)" font-size="78.60402" font-family="AtkinsonHyperlegible" font-weight="bold"><tspan y="-1116.6005" x="811.816">f</tspan></text>
<text fill="#005982" xml:space="preserve" transform="matrix(.9823965 -.1577884 .15938246 .99231967 0 1400)" font-size="78.604007" font-family="AtkinsonHyperlegible" font-weight="bold"><tspan y="-1151.2219" x="790.8686"> </tspan></text>
<text fill="#005982" xml:space="preserve" transform="matrix(.99077269 -.091487709 .09241259 1.0007798 0 1400)" font-size="78.604007" font-family="AtkinsonHyperlegible" font-weight="bold"><tspan y="-1203.3632" x="734.54196">D</tspan></text>
<text fill="#005982" xml:space="preserve" transform="matrix(.99450328 -.031041692 .031355926 1.0045486 0 1400)" font-size="78.603969" font-family="AtkinsonHyperlegible" font-weight="bold"><tspan y="-1248.1984" x="711.40768">i</tspan></text>
<text fill="#005982" xml:space="preserve" transform="matrix(.9947151 .023299067 -.023534423 1.0047617 0 1400)" font-size="78.60401" font-family="AtkinsonHyperlegible" font-weight="bold"><tspan y="-1286.3442" x="665.10189">s</tspan></text>
<text fill="#005982" xml:space="preserve" transform="matrix(.99092939 .08977026 -.090677339 1.000939 0 1400)" font-size="78.60399" font-family="AtkinsonHyperlegible" font-weight="bold"><tspan y="-1330.2284" x="617.0458">a</tspan></text>
<text fill="#005982" xml:space="preserve" transform="matrix(.98169896 .1620731 -.16371043 .9916145 0 1400)" font-size="78.604038" font-family="AtkinsonHyperlegible" font-weight="bold"><tspan y="-1374.4257" x="558.21">b</tspan></text>
<text fill="#005982" xml:space="preserve" transform="matrix(.96994426 .22182969 -.22407002 .9797414 0 1400)" font-size="78.604007" font-family="AtkinsonHyperlegible" font-weight="bold"><tspan y="-1408.0774" x="517.6416">l</tspan></text>
<text fill="#005982" xml:space="preserve" transform="matrix(.9562321 .27499224 -.27776946 .9658906 0 1400)" font-size="78.604038" font-family="AtkinsonHyperlegible" font-weight="bold"><tspan y="-1435.7363" x="461.888">e</tspan></text>
<text fill="#005982" xml:space="preserve" transform="matrix(.93126288 .35035617 -.35389544 .94066956 0 1400)" font-size="78.60401" font-family="AtkinsonHyperlegible" font-weight="bold"><tspan y="-1471.0759" x="387.1326">d</tspan></text>
<text fill="#005982" xml:space="preserve" transform="matrix(.90799418 .4068748 -.410984 .91716548 0 1400)" font-size="78.604038" font-family="AtkinsonHyperlegible" font-weight="bold"><tspan y="-1494.3917" x="340.56169"> </tspan></text>
<text fill="#005982" xml:space="preserve" transform="matrix(.8841167 .4564399 -.46105037 .8930475 0 1400)" font-size="78.60399" font-family="AtkinsonHyperlegible" font-weight="bold"><tspan y="-1512.4092" x="280.552">J</tspan></text>
<text fill="#005982" xml:space="preserve" transform="matrix(.84810659 .52030286 -.5255583 .85667356 0 1400)" font-size="78.604038" font-family="AtkinsonHyperlegible" font-weight="bold"><tspan y="-1531.9591" x="209.39929">o</tspan></text>
<text fill="#005982" xml:space="preserve" transform="matrix(.8075429 .58126947 -.5871406 .8157003 0 1400)" font-size="78.604" font-family="AtkinsonHyperlegible" font-weight="bold"><tspan y="-1546.3076" x="138.14966">u</tspan></text>
<text fill="#005982" xml:space="preserve" transform="matrix(.77046206 .6295939 -.6359536 .7782441 0 1400)" font-size="78.604007" font-family="AtkinsonHyperlegible" font-weight="bold"><tspan y="-1554.2468" x="85.68176">r</tspan></text>
<text fill="#005982" xml:space="preserve" transform="matrix(.7305942 .6754494 -.6822722 .7379742 0 1400)" font-size="78.603969" font-family="AtkinsonHyperlegible" font-weight="bold"><tspan y="-1558.5205" x="17.518128">n</tspan></text>
<text fill="#005982" xml:space="preserve" transform="matrix(.6793087 .72700729 -.73435047 .68617096 0 1400)" font-size="78.60403" font-family="AtkinsonHyperlegible" font-weight="bold"><tspan y="-1558.8325" x="-54.43445">a</tspan></text>
<text fill="#005982" xml:space="preserve" transform="matrix(.63831898 .76324906 -.77095857 .64476647 0 1400)" font-size="78.603969" font-family="AtkinsonHyperlegible" font-weight="bold"><tspan y="-1555.6139" x="-99.03137">l</tspan></text>
<text fill="#005982" xml:space="preserve" transform="matrix(.6098351 .78619369 -.794136 .61599507 0 1400)" font-size="78.60404" font-family="AtkinsonHyperlegible" font-weight="bold"><tspan y="-1551.8134" x="-134.68036">i</tspan></text>
<text fill="#005982" xml:space="preserve" transform="matrix(.5654763 .8186797 -.826949 .57118847 0 1400)" font-size="78.604007" font-family="AtkinsonHyperlegible" font-weight="bold"><tspan y="-1543.6203" x="-197.49683">s</tspan></text>
<text fill="#005982" xml:space="preserve" transform="matrix(.5140552 .8519082 -.8605133 .51924708 0 1400)" font-size="78.60401" font-family="AtkinsonHyperlegible" font-weight="bold"><tspan y="-1531.0189" x="-252.49335">t</tspan></text>
<text fill="#005982" xml:space="preserve" transform="matrix(.46602444 .8791024 -.8879824 .47073157 0 1400)" font-size="78.604038" font-family="AtkinsonHyperlegible" font-weight="bold"><tspan y="-1516.5476" x="-309.28474">s</tspan></text>
</svg>
