<svg xmlns="http://www.w3.org/2000/svg" width="1400" height="1400"><defs><clipPath id="a"><path d="M0 1400h1400V0H0Z"/></clipPath><clipPath id="b"><path d="M0 1400h1400V0H0Z"/></clipPath></defs><g clip-path="url(#a)"><path fill="none" stroke="#ffdd1a" stroke-width="6.327" d="M692.213 1312.621c163.307 0 316.84-63.725 432.314-179.437C1239.999 1017.475 1303.59 863.634 1303.59 700s-63.592-317.476-179.064-433.184C1009.053 151.104 855.52 87.378 692.213 87.378s-316.84 63.726-432.314 179.438C144.427 382.524 80.835 536.366 80.835 700s63.592 317.475 179.064 433.184c115.474 115.712 269.006 179.437 432.314 179.437Z"/><path fill="none" stroke="#ffdd1a" stroke-width="6.327" d="M692.213 1299.948c159.917 0 310.264-62.404 423.344-175.716 113.083-113.316 175.36-263.978 175.36-424.232s-62.277-310.917-175.36-424.233c-113.08-113.312-263.427-175.716-423.344-175.716-159.918 0-310.264 62.404-423.344 175.716C155.785 389.083 93.508 539.745 93.508 700c0 160.254 62.277 310.916 175.36 424.232 113.08 113.312 263.427 175.716 423.345 175.716Z"/><text xml:space="preserve" fill="#005982" font-family="AtkinsonHyperlegible" font-size="78.604" font-weight="bold" transform="matrix(.58933 -.80168 .80978 .59529 0 1400)"><tspan x="1763.357" y="657.115"> </tspan></text><text xml:space="preserve" fill="#005982" font-family="AtkinsonHyperlegible" font-size="78.604" font-weight="bold" transform="matrix(.63687 -.76446 .77218 .6433 0 1400)"><tspan x="1824.123" y="548.225">T</tspan></text><text xml:space="preserve" fill="#005982" font-family="AtkinsonHyperlegible" font-size="78.604" font-weight="bold" transform="matrix(.69096 -.71594 .72317 .69794 0 1400)"><tspan x="1906.283" y="411.598">h</tspan></text><text xml:space="preserve" fill="#005982" font-family="AtkinsonHyperlegible" font-size="78.604" font-weight="bold" transform="matrix(.7415 -.66345 .67016 .749 0 1400)"><tspan x="1974.036" y="269.232">e</tspan></text><text xml:space="preserve" fill="#005982" font-family="AtkinsonHyperlegible" font-size="78.604" font-weight="bold" transform="matrix(.77687 -.62166 .62794 .78472 0 1400)"><tspan x="2029.288" y="159.202"> </tspan></text><text xml:space="preserve" fill="#005982" font-family="AtkinsonHyperlegible" font-size="78.604" font-weight="bold" transform="matrix(.81345 -.57297 .57876 .82167 0 1400)"><tspan x="2059.055" y="34.162">S</tspan></text><text xml:space="preserve" fill="#005982" font-family="AtkinsonHyperlegible" font-size="78.604" font-weight="bold" transform="matrix(.85334 -.51167 .51684 .86196 0 1400)"><tspan x="2102.765" y="-119.044">o</tspan></text><text xml:space="preserve" fill="#005982" font-family="AtkinsonHyperlegible" font-size="78.604" font-weight="bold" transform="matrix(.88863 -.44759 .45211 .8976 0 1400)"><tspan x="2131.374" y="-274.839">c</tspan></text><text xml:space="preserve" fill="#005982" font-family="AtkinsonHyperlegible" font-size="78.604" font-weight="bold" transform="matrix(.91195 -.39794 .40195 .92116 0 1400)"><tspan x="2152.497" y="-392.808">i</tspan></text><text xml:space="preserve" fill="#005982" font-family="AtkinsonHyperlegible" font-size="78.604" font-weight="bold" transform="matrix(.93248 -.3471 .35062 .9419 0 1400)"><tspan x="2150.941" y="-511.294">e</tspan></text><text xml:space="preserve" fill="#005982" font-family="AtkinsonHyperlegible" font-size="78.604" font-weight="bold" transform="matrix(.95194 -.28949 .29241 .96156 0 1400)"><tspan x="2158.42" y="-643.035">t</tspan></text><text xml:space="preserve" fill="#005982" font-family="AtkinsonHyperlegible" font-size="78.604" font-weight="bold" transform="matrix(.9664 -.2368 .2392 .97616 0 1400)"><tspan x="2148.114" y="-761.225">y</tspan></text><text xml:space="preserve" fill="#005982" font-family="AtkinsonHyperlegible" font-size="78.604" font-weight="bold" transform="matrix(.97678 -.18946 .19137 .98665 0 1400)"><tspan x="2147.876" y="-865.641"> </tspan></text><text xml:space="preserve" fill="#005982" font-family="AtkinsonHyperlegible" font-size="78.604" font-weight="bold" transform="matrix(.98653 -.1295 .1308 .99649 0 1400)"><tspan x="2114.251" y="-995.593">o</tspan></text><text xml:space="preserve" fill="#005982" font-family="AtkinsonHyperlegible" font-size="78.604" font-weight="bold" transform="matrix(.99217 -.07488 .07564 1.00219 0 1400)"><tspan x="2099.396" y="-1111.725">f</tspan></text><text xml:space="preserve" fill="#005982" font-family="AtkinsonHyperlegible" font-size="78.604" font-weight="bold" transform="matrix(.99447 -.03212 .03245 1.00451 0 1400)"><tspan x="2077.232" y="-1201.213"> </tspan></text><text xml:space="preserve" fill="#005982" font-family="AtkinsonHyperlegible" font-size="78.604" font-weight="bold" transform="matrix(.99436 .03533 -.03568 1.0044 0 1400)"><tspan x="2013.741" y="-1339.823">D</tspan></text><text xml:space="preserve" fill="#005982" font-family="AtkinsonHyperlegible" font-size="78.604" font-weight="bold" transform="matrix(.99028 .09666 -.09763 1.00028 0 1400)"><tspan x="1978.471" y="-1463.108">i</tspan></text><text xml:space="preserve" fill="#005982" font-family="AtkinsonHyperlegible" font-size="78.604" font-weight="bold" transform="matrix(.98337 .15162 -.15316 .9933 0 1400)"><tspan x="1916.687" y="-1571.365">s</tspan></text><text xml:space="preserve" fill="#005982" font-family="AtkinsonHyperlegible" font-size="78.604" font-weight="bold" transform="matrix(.9694 .22423 -.2265 .97918 0 1400)"><tspan x="1833.574" y="-1710.992">a</tspan></text><text xml:space="preserve" fill="#005982" font-family="AtkinsonHyperlegible" font-size="78.604" font-weight="bold" transform="matrix(.95006 .29561 -.2986 .95966 0 1400)"><tspan x="1741.262" y="-1844.404">b</tspan></text><text xml:space="preserve" fill="#005982" font-family="AtkinsonHyperlegible" font-size="78.604" font-weight="bold" transform="matrix(.93212 .34808 -.3516 .94153 0 1400)"><tspan x="1680.382" y="-1939.863">l</tspan></text><text xml:space="preserve" fill="#005982" font-family="AtkinsonHyperlegible" font-size="78.604" font-weight="bold" transform="matrix(.90881 .40504 -.40914 .918 0 1400)"><tspan x="1579.263" y="-2040.844">e</tspan></text><text xml:space="preserve" fill="#005982" font-family="AtkinsonHyperlegible" font-size="78.604" font-weight="bold" transform="matrix(.87634 .4712 -.47596 .8852 0 1400)"><tspan x="1464.917" y="-2154.376">d</tspan></text><text xml:space="preserve" fill="#005982" font-family="AtkinsonHyperlegible" font-size="78.604" font-weight="bold" transform="matrix(.8489 .519 -.52424 .85748 0 1400)"><tspan x="1387.807" y="-2233.677"> </tspan></text><text xml:space="preserve" fill="#005982" font-family="AtkinsonHyperlegible" font-size="78.604" font-weight="bold" transform="matrix(.81896 .56508 -.57079 .82723 0 1400)"><tspan x="1285.071" y="-2307.727">J</tspan></text><text xml:space="preserve" fill="#005982" font-family="AtkinsonHyperlegible" font-size="78.604" font-weight="bold" transform="matrix(.77503 .62396 -.63026 .78286 0 1400)"><tspan x="1151.685" y="-2398.497">o</tspan></text><text xml:space="preserve" fill="#005982" font-family="AtkinsonHyperlegible" font-size="78.604" font-weight="bold" transform="matrix(.72671 .67963 -.6865 .73405 0 1400)"><tspan x="1012.283" y="-2479.619">u</tspan></text><text xml:space="preserve" fill="#005982" font-family="AtkinsonHyperlegible" font-size="78.604" font-weight="bold" transform="matrix(.6833 .72326 -.73057 .6902 0 1400)"><tspan x="898.815" y="-2539.382">r</tspan></text><text xml:space="preserve" fill="#005982" font-family="AtkinsonHyperlegible" font-size="78.604" font-weight="bold" transform="matrix(.64194 .7602 -.76788 .64842 0 1400)"><tspan x="782.531" y="-2586.795">n</tspan></text><text xml:space="preserve" fill="#005982" font-family="AtkinsonHyperlegible" font-size="78.604" font-weight="bold" transform="matrix(.5837 .80579 -.81393 .5896 0 1400)"><tspan x="629.303" y="-2640.297">a</tspan></text><text xml:space="preserve" fill="#005982" font-family="AtkinsonHyperlegible" font-size="78.604" font-weight="bold" transform="matrix(.5379 .83706 -.84551 .54333 0 1400)"><tspan x="521.57" y="-2672.946">l</tspan></text><text xml:space="preserve" fill="#005982" font-family="AtkinsonHyperlegible" font-size="78.604" font-weight="bold" transform="matrix(.50644 .85645 -.8651 .51156 0 1400)"><tspan x="442.973" y="-2691.09">i</tspan></text><text xml:space="preserve" fill="#005982" font-family="AtkinsonHyperlegible" font-size="78.604" font-weight="bold" transform="matrix(.45801 .8833 -.89222 .46264 0 1400)"><tspan x="314.62" y="-2712.827">s</tspan></text><text xml:space="preserve" fill="#005982" font-family="AtkinsonHyperlegible" font-size="78.604" font-weight="bold" transform="matrix(.40265 .90988 -.91907 .40671 0 1400)"><tspan x="185.476" y="-2729.214">t</tspan></text><text xml:space="preserve" fill="#005982" font-family="AtkinsonHyperlegible" font-size="78.604" font-weight="bold" transform="matrix(.35162 .93079 -.94019 .35517 0 1400)"><tspan x="61.031" y="-2736.97">s</tspan></text><text xml:space="preserve" fill="#fff" font-family="AtkinsonHyperlegible" font-size="78.604" font-weight="bold" transform="matrix(.45515 .88478 -.89372 .45975 0 1400)"><tspan x="-317.242" y="-311.25"> </tspan></text><text xml:space="preserve" fill="#fff" font-family="AtkinsonHyperlegible" font-size="78.604" font-weight="bold" transform="matrix(.49823 .86126 -.86996 .50326 0 1400)"><tspan x="-273.714" y="-325.038"> </tspan></text><text xml:space="preserve" fill="#fff" font-family="AtkinsonHyperlegible" font-size="78.604" font-weight="bold" transform="matrix(.53489 .83898 -.84746 .5403 0 1400)"><tspan x="-231.882" y="-335.2"> </tspan></text><text xml:space="preserve" fill="#fff" font-family="AtkinsonHyperlegible" font-size="78.604" font-weight="bold" transform="matrix(.59036 .80092 -.80901 .59632 0 1400)"><tspan x="-180.228" y="-347.533">N</tspan></text><text xml:space="preserve" fill="#fff" font-family="AtkinsonHyperlegible" font-size="78.604" font-weight="bold" transform="matrix(.6568 .7474 -.75495 .66344 0 1400)"><tspan x="-90.847" y="-356.756">o</tspan></text><text xml:space="preserve" fill="#fff" font-family="AtkinsonHyperlegible" font-size="78.604" font-weight="bold" transform="matrix(.69683 .71023 -.7174 .70387 0 1400)"><tspan x="-23.233" y="-358.854"> </tspan></text><text xml:space="preserve" fill="#fff" font-family="AtkinsonHyperlegible" font-size="78.604" font-weight="bold" transform="matrix(.74284 .66196 -.66865 .75034 0 1400)"><tspan x="29.336" y="-357.376">N</tspan></text><text xml:space="preserve" fill="#fff" font-family="AtkinsonHyperlegible" font-size="78.604" font-weight="bold" transform="matrix(.79673 .596 -.60203 .80477 0 1400)"><tspan x="118.752" y="-349.037">e</tspan></text><text xml:space="preserve" fill="#fff" font-family="AtkinsonHyperlegible" font-size="78.604" font-weight="bold" transform="matrix(.8449 .5255 -.5308 .85344 0 1400)"><tspan x="196.684" y="-333.478">w</tspan></text><text xml:space="preserve" fill="#fff" font-family="AtkinsonHyperlegible" font-size="78.604" font-weight="bold" transform="matrix(.8869 .45099 -.45555 .89587 0 1400)"><tspan x="285.341" y="-310.794">s</tspan></text><text xml:space="preserve" fill="#fff" font-family="AtkinsonHyperlegible" font-size="78.604" font-weight="bold" transform="matrix(.91048 .40128 -.40533 .91968 0 1400)"><tspan x="346.9" y="-292.531"> </tspan></text><text xml:space="preserve" fill="#fff" font-family="AtkinsonHyperlegible" font-size="78.604" font-weight="bold" transform="matrix(.9355 .33888 -.3423 .94495 0 1400)"><tspan x="394.305" y="-266.411">A</tspan></text><text xml:space="preserve" fill="#fff" font-family="AtkinsonHyperlegible" font-size="78.604" font-weight="bold" transform="matrix(.96113 .25734 -.25994 .97084 0 1400)"><tspan x="473.813" y="-227.343">b</tspan></text><text xml:space="preserve" fill="#fff" font-family="AtkinsonHyperlegible" font-size="78.604" font-weight="bold" transform="matrix(.97856 .18005 -.18187 .98844 0 1400)"><tspan x="540.883" y="-185.51">o</tspan></text><text xml:space="preserve" fill="#fff" font-family="AtkinsonHyperlegible" font-size="78.604" font-weight="bold" transform="matrix(.98976 .10184 -.10287 .99976 0 1400)"><tspan x="602.537" y="-138.66">u</tspan></text><text xml:space="preserve" fill="#fff" font-family="AtkinsonHyperlegible" font-size="78.604" font-weight="bold" transform="matrix(.99412 .04142 -.04184 1.00417 0 1400)"><tspan x="657.604" y="-99.432">t</tspan></text><text xml:space="preserve" fill="#fff" font-family="AtkinsonHyperlegible" font-size="78.604" font-weight="bold" transform="matrix(.99499 -.00085 .00085 1.00504 0 1400)"><tspan x="693.325" y="-70.433"> </tspan></text><text xml:space="preserve" fill="#fff" font-family="AtkinsonHyperlegible" font-size="78.604" font-weight="bold" transform="matrix(.9927 -.06731 .06799 1.00274 0 1400)"><tspan x="724.76" y="-22.231">U</tspan></text><text xml:space="preserve" fill="#fff" font-family="AtkinsonHyperlegible" font-size="78.604" font-weight="bold" transform="matrix(.98425 -.14576 .14723 .9942 0 1400)"><tspan x="779.34" y="38.744">s</tspan></text><text xml:space="preserve" fill="#fff" font-family="AtkinsonHyperlegible" font-size="78.604" font-weight="bold" transform="matrix(.97474 -.1997 .20173 .98459 0 1400)"><tspan x="820.648" y="83.285"> </tspan></text><text xml:space="preserve" fill="#fff" font-family="AtkinsonHyperlegible" font-size="78.604" font-weight="bold" transform="matrix(.95575 -.27668 .27947 .9654 0 1400)"><tspan x="839.989" y="150.623">W</tspan></text><text xml:space="preserve" fill="#fff" font-family="AtkinsonHyperlegible" font-size="78.604" font-weight="bold" transform="matrix(.93064 -.352 .35556 .94004 0 1400)"><tspan x="898.011" y="221.081">i</tspan></text><text xml:space="preserve" fill="#fff" font-family="AtkinsonHyperlegible" font-size="78.604" font-weight="bold" transform="matrix(.91222 -.3973 .40131 .92144 0 1400)"><tspan x="913.195" y="265.778">t</tspan></text><text xml:space="preserve" fill="#fff" font-family="AtkinsonHyperlegible" font-size="78.604" font-weight="bold" transform="matrix(.8833 -.458 .46263 .89223 0 1400)"><tspan x="925.855" y="328.634">h</tspan></text><text xml:space="preserve" fill="#fff" font-family="AtkinsonHyperlegible" font-size="78.604" font-weight="bold" transform="matrix(.84719 -.5218 .52707 .85574 0 1400)"><tspan x="946.489" y="398.715">o</tspan></text><text xml:space="preserve" fill="#fff" font-family="AtkinsonHyperlegible" font-size="78.604" font-weight="bold" transform="matrix(.80652 -.58269 .58857 .81467 0 1400)"><tspan x="962.609" y="469.949">u</tspan></text><text xml:space="preserve" fill="#fff" font-family="AtkinsonHyperlegible" font-size="78.604" font-weight="bold" transform="matrix(.76549 -.63563 .64205 .77322 0 1400)"><tspan x="976.361" y="535.879">t</tspan></text><text xml:space="preserve" fill="#fff" font-family="AtkinsonHyperlegible" font-size="78.604" font-weight="bold" transform="matrix(.73762 -.66777 .67451 .74507 0 1400)"><tspan x="984.39" y="577.981"> </tspan></text><text xml:space="preserve" fill="#fff" font-family="AtkinsonHyperlegible" font-size="78.604" font-weight="bold" transform="matrix(.69125 -.71566 .72289 .69824 0 1400)"><tspan x="971.325" y="644.137">U</tspan></text><text xml:space="preserve" fill="#fff" font-family="AtkinsonHyperlegible" font-size="78.604" font-weight="bold" transform="matrix(.63229 -.76825 .77601 .63867 0 1400)"><tspan x="971.718" y="722.452">s</tspan></text></g><text xml:space="preserve" fill="#005982" font-family="AtkinsonHyperlegible" font-size="78.604" font-weight="bold" transform="matrix(.45515 .88478 -.89372 .45975 0 1400)"><tspan x="-317.242" y="-311.25"> </tspan></text><text xml:space="preserve" fill="#005982" font-family="AtkinsonHyperlegible" font-size="78.604" font-weight="bold" transform="matrix(.49823 .86126 -.86996 .50326 0 1400)"><tspan x="-273.714" y="-325.038"> </tspan></text><text xml:space="preserve" fill="#005982" font-family="AtkinsonHyperlegible" font-size="78.604" font-weight="bold" transform="matrix(.53489 .83898 -.84746 .5403 0 1400)"><tspan x="-231.882" y="-335.2"> </tspan></text><text xml:space="preserve" fill="#005982" font-family="AtkinsonHyperlegible" font-size="78.604" font-weight="bold" transform="matrix(.59036 .80092 -.80901 .59632 0 1400)"><tspan x="-180.228" y="-347.533">N</tspan></text><text xml:space="preserve" fill="#005982" font-family="AtkinsonHyperlegible" font-size="78.604" font-weight="bold" transform="matrix(.6568 .7474 -.75495 .66344 0 1400)"><tspan x="-90.847" y="-356.756">o</tspan></text><text xml:space="preserve" fill="#005982" font-family="AtkinsonHyperlegible" font-size="78.604" font-weight="bold" transform="matrix(.69683 .71023 -.7174 .70387 0 1400)"><tspan x="-23.233" y="-358.854"> </tspan></text><text xml:space="preserve" fill="#005982" font-family="AtkinsonHyperlegible" font-size="78.604" font-weight="bold" transform="matrix(.74284 .66196 -.66865 .75034 0 1400)"><tspan x="29.336" y="-357.376">N</tspan></text><text xml:space="preserve" fill="#005982" font-family="AtkinsonHyperlegible" font-size="78.604" font-weight="bold" transform="matrix(.79673 .596 -.60203 .80477 0 1400)"><tspan x="118.752" y="-349.037">e</tspan></text><text xml:space="preserve" fill="#005982" font-family="AtkinsonHyperlegible" font-size="78.604" font-weight="bold" transform="matrix(.8449 .5255 -.5308 .85344 0 1400)"><tspan x="196.684" y="-333.478">w</tspan></text><text xml:space="preserve" fill="#005982" font-family="AtkinsonHyperlegible" font-size="78.604" font-weight="bold" transform="matrix(.8869 .45099 -.45555 .89587 0 1400)"><tspan x="285.341" y="-310.794">s</tspan></text><text xml:space="preserve" fill="#005982" font-family="AtkinsonHyperlegible" font-size="78.604" font-weight="bold" transform="matrix(.91048 .40128 -.40533 .91968 0 1400)"><tspan x="346.9" y="-292.531"> </tspan></text><text xml:space="preserve" fill="#005982" font-family="AtkinsonHyperlegible" font-size="78.604" font-weight="bold" transform="matrix(.9355 .33888 -.3423 .94495 0 1400)"><tspan x="394.305" y="-266.411">A</tspan></text><text xml:space="preserve" fill="#005982" font-family="AtkinsonHyperlegible" font-size="78.604" font-weight="bold" transform="matrix(.96113 .25734 -.25994 .97084 0 1400)"><tspan x="473.813" y="-227.343">b</tspan></text><text xml:space="preserve" fill="#005982" font-family="AtkinsonHyperlegible" font-size="78.604" font-weight="bold" transform="matrix(.97856 .18005 -.18187 .98844 0 1400)"><tspan x="540.883" y="-185.51">o</tspan></text><text xml:space="preserve" fill="#005982" font-family="AtkinsonHyperlegible" font-size="78.604" font-weight="bold" transform="matrix(.98976 .10184 -.10287 .99976 0 1400)"><tspan x="602.537" y="-138.66">u</tspan></text><text xml:space="preserve" fill="#005982" font-family="AtkinsonHyperlegible" font-size="78.604" font-weight="bold" transform="matrix(.99412 .04142 -.04184 1.00417 0 1400)"><tspan x="657.604" y="-99.432">t</tspan></text><text xml:space="preserve" fill="#005982" font-family="AtkinsonHyperlegible" font-size="78.604" font-weight="bold" transform="matrix(.99499 -.00085 .00085 1.00504 0 1400)"><tspan x="693.325" y="-70.433"> </tspan></text><text xml:space="preserve" fill="#005982" font-family="AtkinsonHyperlegible" font-size="78.604" font-weight="bold" transform="matrix(.9927 -.06731 .06799 1.00274 0 1400)"><tspan x="724.76" y="-22.231">U</tspan></text><text xml:space="preserve" fill="#005982" font-family="AtkinsonHyperlegible" font-size="78.604" font-weight="bold" transform="matrix(.98425 -.14576 .14723 .9942 0 1400)"><tspan x="779.34" y="38.744">s</tspan></text><text xml:space="preserve" fill="#005982" font-family="AtkinsonHyperlegible" font-size="78.604" font-weight="bold" transform="matrix(.97474 -.1997 .20173 .98459 0 1400)"><tspan x="820.648" y="83.285"> </tspan></text><text xml:space="preserve" fill="#005982" font-family="AtkinsonHyperlegible" font-size="78.604" font-weight="bold" transform="matrix(.95575 -.27668 .27947 .9654 0 1400)"><tspan x="839.989" y="150.623">W</tspan></text><text xml:space="preserve" fill="#005982" font-family="AtkinsonHyperlegible" font-size="78.604" font-weight="bold" transform="matrix(.93064 -.352 .35556 .94004 0 1400)"><tspan x="898.011" y="221.081">i</tspan></text><text xml:space="preserve" fill="#005982" font-family="AtkinsonHyperlegible" font-size="78.604" font-weight="bold" transform="matrix(.91222 -.3973 .40131 .92144 0 1400)"><tspan x="913.195" y="265.778">t</tspan></text><text xml:space="preserve" fill="#005982" font-family="AtkinsonHyperlegible" font-size="78.604" font-weight="bold" transform="matrix(.8833 -.458 .46263 .89223 0 1400)"><tspan x="925.855" y="328.634">h</tspan></text><text xml:space="preserve" fill="#005982" font-family="AtkinsonHyperlegible" font-size="78.604" font-weight="bold" transform="matrix(.84719 -.5218 .52707 .85574 0 1400)"><tspan x="946.489" y="398.715">o</tspan></text><text xml:space="preserve" fill="#005982" font-family="AtkinsonHyperlegible" font-size="78.604" font-weight="bold" transform="matrix(.80652 -.58269 .58857 .81467 0 1400)"><tspan x="962.609" y="469.949">u</tspan></text><text xml:space="preserve" fill="#005982" font-family="AtkinsonHyperlegible" font-size="78.604" font-weight="bold" transform="matrix(.76549 -.63563 .64205 .77322 0 1400)"><tspan x="976.361" y="535.879">t</tspan></text><text xml:space="preserve" fill="#005982" font-family="AtkinsonHyperlegible" font-size="78.604" font-weight="bold" transform="matrix(.73762 -.66777 .67451 .74507 0 1400)"><tspan x="984.39" y="577.981"> </tspan></text><text xml:space="preserve" fill="#005982" font-family="AtkinsonHyperlegible" font-size="78.604" font-weight="bold" transform="matrix(.69125 -.71566 .72289 .69824 0 1400)"><tspan x="971.325" y="644.137">U</tspan></text><text xml:space="preserve" fill="#005982" font-family="AtkinsonHyperlegible" font-size="78.604" font-weight="bold" transform="matrix(.63229 -.76825 .77601 .63867 0 1400)"><tspan x="971.718" y="722.452">s</tspan></text><text xml:space="preserve" fill="#005982" font-family="Impact" font-size="600" transform="translate(0 1400)"><tspan x="219.0797 589.2797 981.0798" y="-478.684">SDJ</tspan></text><g fill="#fff" clip-path="url(#b)" font-family="AtkinsonHyperlegible" font-size="78.604" font-weight="bold"><text xml:space="preserve" transform="matrix(.51777 -.84966 .85824 .523 0 1400)"><tspan x="937.059" y="-343.636">T</tspan></text><text xml:space="preserve" transform="matrix(.57903 -.80915 .81732 .58488 0 1400)"><tspan x="955.465" y="-414.668">h</tspan></text><text xml:space="preserve" transform="matrix(.63698 -.76437 .7721 .64341 0 1400)"><tspan x="964.495" y="-486.359">e</tspan></text><text xml:space="preserve" transform="matrix(.67804 -.72819 .73554 .6849 0 1400)"><tspan x="979.308" y="-540.281"> </tspan></text><text xml:space="preserve" transform="matrix(.72112 -.68556 .69248 .7284 0 1400)"><tspan x="968.018" y="-600.116">S</tspan></text><text xml:space="preserve" transform="matrix(.7732 -.62623 .63255 .78101 0 1400)"><tspan x="963.435" y="-677.912">o</tspan></text><text xml:space="preserve" transform="matrix(.8136 -.57276 .57855 .82182 0 1400)"><tspan x="958.528" y="-743.47">c</tspan></text><text xml:space="preserve" transform="matrix(.84396 -.527 .53232 .85249 0 1400)"><tspan x="955.295" y="-796.653">i</tspan></text><text xml:space="preserve" transform="matrix(.87178 -.47958 .48442 .88059 0 1400)"><tspan x="932.947" y="-849.216">e</tspan></text><text xml:space="preserve" transform="matrix(.90218 -.41961 .42385 .9113 0 1400)"><tspan x="915.699" y="-912.346">t</tspan></text><text xml:space="preserve" transform="matrix(.924 -.3691 .37283 .93333 0 1400)"><tspan x="891.943" y="-962.869">y</tspan></text><text xml:space="preserve" transform="matrix(.94298 -.31749 .3207 .9525 0 1400)"><tspan x="876.343" y="-1012.181"> </tspan></text><text xml:space="preserve" transform="matrix(.96067 -.25905 .26167 .97038 0 1400)"><tspan x="835.707" y="-1065.35">o</tspan></text><text xml:space="preserve" transform="matrix(.97474 -.19972 .20173 .98458 0 1400)"><tspan x="811.816" y="-1116.601">f</tspan></text><text xml:space="preserve" transform="matrix(.9824 -.15779 .15938 .99232 0 1400)"><tspan x="790.869" y="-1151.222"> </tspan></text><text xml:space="preserve" transform="matrix(.99077 -.09149 .09241 1.00078 0 1400)"><tspan x="734.542" y="-1203.363">D</tspan></text><text xml:space="preserve" transform="matrix(.9945 -.03104 .03136 1.00455 0 1400)"><tspan x="711.408" y="-1248.198">i</tspan></text><text xml:space="preserve" transform="matrix(.99472 .0233 -.02353 1.00476 0 1400)"><tspan x="665.102" y="-1286.344">s</tspan></text><text xml:space="preserve" transform="matrix(.99093 .08977 -.09068 1.00094 0 1400)"><tspan x="617.046" y="-1330.228">a</tspan></text><text xml:space="preserve" transform="matrix(.9817 .16207 -.16371 .99161 0 1400)"><tspan x="558.21" y="-1374.426">b</tspan></text><text xml:space="preserve" transform="matrix(.96994 .22183 -.22407 .97974 0 1400)"><tspan x="517.642" y="-1408.077">l</tspan></text><text xml:space="preserve" transform="matrix(.95623 .275 -.27777 .9659 0 1400)"><tspan x="461.888" y="-1435.736">e</tspan></text><text xml:space="preserve" transform="matrix(.93126 .35036 -.3539 .94067 0 1400)"><tspan x="387.133" y="-1471.076">d</tspan></text><text xml:space="preserve" transform="matrix(.908 .40687 -.41098 .91717 0 1400)"><tspan x="340.562" y="-1494.392"> </tspan></text><text xml:space="preserve" transform="matrix(.88412 .45644 -.46105 .89305 0 1400)"><tspan x="280.552" y="-1512.409">J</tspan></text><text xml:space="preserve" transform="matrix(.8481 .5203 -.52556 .85667 0 1400)"><tspan x="209.399" y="-1531.959">o</tspan></text><text xml:space="preserve" transform="matrix(.80754 .58127 -.58714 .8157 0 1400)"><tspan x="138.15" y="-1546.308">u</tspan></text><text xml:space="preserve" transform="matrix(.77046 .6296 -.63595 .77824 0 1400)"><tspan x="85.682" y="-1554.247">r</tspan></text><text xml:space="preserve" transform="matrix(.7306 .67545 -.68227 .73797 0 1400)"><tspan x="17.518" y="-1558.521">n</tspan></text><text xml:space="preserve" transform="matrix(.6793 .727 -.73435 .68617 0 1400)"><tspan x="-54.434" y="-1558.832">a</tspan></text><text xml:space="preserve" transform="matrix(.63832 .76325 -.77096 .64477 0 1400)"><tspan x="-99.031" y="-1555.614">l</tspan></text><text xml:space="preserve" transform="matrix(.60984 .7862 -.79414 .616 0 1400)"><tspan x="-134.68" y="-1551.813">i</tspan></text><text xml:space="preserve" transform="matrix(.56548 .81868 -.82695 .57119 0 1400)"><tspan x="-197.497" y="-1543.62">s</tspan></text><text xml:space="preserve" transform="matrix(.51406 .8519 -.86051 .51925 0 1400)"><tspan x="-252.493" y="-1531.019">t</tspan></text><text xml:space="preserve" transform="matrix(.46602 .8791 -.88798 .47073 0 1400)"><tspan x="-309.285" y="-1516.548">s</tspan></text></g><text xml:space="preserve" fill="#005982" font-family="AtkinsonHyperlegible" font-size="78.604" font-weight="bold" transform="matrix(.51777 -.84966 .85824 .523 0 1400)"><tspan x="937.059" y="-343.636">T</tspan></text><text xml:space="preserve" fill="#005982" font-family="AtkinsonHyperlegible" font-size="78.604" font-weight="bold" transform="matrix(.57903 -.80915 .81732 .58488 0 1400)"><tspan x="955.465" y="-414.668">h</tspan></text><text xml:space="preserve" fill="#005982" font-family="AtkinsonHyperlegible" font-size="78.604" font-weight="bold" transform="matrix(.63698 -.76437 .7721 .64341 0 1400)"><tspan x="964.495" y="-486.359">e</tspan></text><text xml:space="preserve" fill="#005982" font-family="AtkinsonHyperlegible" font-size="78.604" font-weight="bold" transform="matrix(.67804 -.72819 .73554 .6849 0 1400)"><tspan x="979.308" y="-540.281"> </tspan></text><text xml:space="preserve" fill="#005982" font-family="AtkinsonHyperlegible" font-size="78.604" font-weight="bold" transform="matrix(.72112 -.68556 .69248 .7284 0 1400)"><tspan x="968.018" y="-600.116">S</tspan></text><text xml:space="preserve" fill="#005982" font-family="AtkinsonHyperlegible" font-size="78.604" font-weight="bold" transform="matrix(.7732 -.62623 .63255 .78101 0 1400)"><tspan x="963.435" y="-677.912">o</tspan></text><text xml:space="preserve" fill="#005982" font-family="AtkinsonHyperlegible" font-size="78.604" font-weight="bold" transform="matrix(.8136 -.57276 .57855 .82182 0 1400)"><tspan x="958.528" y="-743.47">c</tspan></text><text xml:space="preserve" fill="#005982" font-family="AtkinsonHyperlegible" font-size="78.604" font-weight="bold" transform="matrix(.84396 -.527 .53232 .85249 0 1400)"><tspan x="955.295" y="-796.653">i</tspan></text><text xml:space="preserve" fill="#005982" font-family="AtkinsonHyperlegible" font-size="78.604" font-weight="bold" transform="matrix(.87178 -.47958 .48442 .88059 0 1400)"><tspan x="932.947" y="-849.216">e</tspan></text><text xml:space="preserve" fill="#005982" font-family="AtkinsonHyperlegible" font-size="78.604" font-weight="bold" transform="matrix(.90218 -.41961 .42385 .9113 0 1400)"><tspan x="915.699" y="-912.346">t</tspan></text><text xml:space="preserve" fill="#005982" font-family="AtkinsonHyperlegible" font-size="78.604" font-weight="bold" transform="matrix(.924 -.3691 .37283 .93333 0 1400)"><tspan x="891.943" y="-962.869">y</tspan></text><text xml:space="preserve" fill="#005982" font-family="AtkinsonHyperlegible" font-size="78.604" font-weight="bold" transform="matrix(.94298 -.31749 .3207 .9525 0 1400)"><tspan x="876.343" y="-1012.181"> </tspan></text><text xml:space="preserve" fill="#005982" font-family="AtkinsonHyperlegible" font-size="78.604" font-weight="bold" transform="matrix(.96067 -.25905 .26167 .97038 0 1400)"><tspan x="835.707" y="-1065.35">o</tspan></text><text xml:space="preserve" fill="#005982" font-family="AtkinsonHyperlegible" font-size="78.604" font-weight="bold" transform="matrix(.97474 -.19972 .20173 .98458 0 1400)"><tspan x="811.816" y="-1116.601">f</tspan></text><text xml:space="preserve" fill="#005982" font-family="AtkinsonHyperlegible" font-size="78.604" font-weight="bold" transform="matrix(.9824 -.15779 .15938 .99232 0 1400)"><tspan x="790.869" y="-1151.222"> </tspan></text><text xml:space="preserve" fill="#005982" font-family="AtkinsonHyperlegible" font-size="78.604" font-weight="bold" transform="matrix(.99077 -.09149 .09241 1.00078 0 1400)"><tspan x="734.542" y="-1203.363">D</tspan></text><text xml:space="preserve" fill="#005982" font-family="AtkinsonHyperlegible" font-size="78.604" font-weight="bold" transform="matrix(.9945 -.03104 .03136 1.00455 0 1400)"><tspan x="711.408" y="-1248.198">i</tspan></text><text xml:space="preserve" fill="#005982" font-family="AtkinsonHyperlegible" font-size="78.604" font-weight="bold" transform="matrix(.99472 .0233 -.02353 1.00476 0 1400)"><tspan x="665.102" y="-1286.344">s</tspan></text><text xml:space="preserve" fill="#005982" font-family="AtkinsonHyperlegible" font-size="78.604" font-weight="bold" transform="matrix(.99093 .08977 -.09068 1.00094 0 1400)"><tspan x="617.046" y="-1330.228">a</tspan></text><text xml:space="preserve" fill="#005982" font-family="AtkinsonHyperlegible" font-size="78.604" font-weight="bold" transform="matrix(.9817 .16207 -.16371 .99161 0 1400)"><tspan x="558.21" y="-1374.426">b</tspan></text><text xml:space="preserve" fill="#005982" font-family="AtkinsonHyperlegible" font-size="78.604" font-weight="bold" transform="matrix(.96994 .22183 -.22407 .97974 0 1400)"><tspan x="517.642" y="-1408.077">l</tspan></text><text xml:space="preserve" fill="#005982" font-family="AtkinsonHyperlegible" font-size="78.604" font-weight="bold" transform="matrix(.95623 .275 -.27777 .9659 0 1400)"><tspan x="461.888" y="-1435.736">e</tspan></text><text xml:space="preserve" fill="#005982" font-family="AtkinsonHyperlegible" font-size="78.604" font-weight="bold" transform="matrix(.93126 .35036 -.3539 .94067 0 1400)"><tspan x="387.133" y="-1471.076">d</tspan></text><text xml:space="preserve" fill="#005982" font-family="AtkinsonHyperlegible" font-size="78.604" font-weight="bold" transform="matrix(.908 .40687 -.41098 .91717 0 1400)"><tspan x="340.562" y="-1494.392"> </tspan></text><text xml:space="preserve" fill="#005982" font-family="AtkinsonHyperlegible" font-size="78.604" font-weight="bold" transform="matrix(.88412 .45644 -.46105 .89305 0 1400)"><tspan x="280.552" y="-1512.409">J</tspan></text><text xml:space="preserve" fill="#005982" font-family="AtkinsonHyperlegible" font-size="78.604" font-weight="bold" transform="matrix(.8481 .5203 -.52556 .85667 0 1400)"><tspan x="209.399" y="-1531.959">o</tspan></text><text xml:space="preserve" fill="#005982" font-family="AtkinsonHyperlegible" font-size="78.604" font-weight="bold" transform="matrix(.80754 .58127 -.58714 .8157 0 1400)"><tspan x="138.15" y="-1546.308">u</tspan></text><text xml:space="preserve" fill="#005982" font-family="AtkinsonHyperlegible" font-size="78.604" font-weight="bold" transform="matrix(.77046 .6296 -.63595 .77824 0 1400)"><tspan x="85.682" y="-1554.247">r</tspan></text><text xml:space="preserve" fill="#005982" font-family="AtkinsonHyperlegible" font-size="78.604" font-weight="bold" transform="matrix(.7306 .67545 -.68227 .73797 0 1400)"><tspan x="17.518" y="-1558.521">n</tspan></text><text xml:space="preserve" fill="#005982" font-family="AtkinsonHyperlegible" font-size="78.604" font-weight="bold" transform="matrix(.6793 .727 -.73435 .68617 0 1400)"><tspan x="-54.434" y="-1558.832">a</tspan></text><text xml:space="preserve" fill="#005982" font-family="AtkinsonHyperlegible" font-size="78.604" font-weight="bold" transform="matrix(.63832 .76325 -.77096 .64477 0 1400)"><tspan x="-99.031" y="-1555.614">l</tspan></text><text xml:space="preserve" fill="#005982" font-family="AtkinsonHyperlegible" font-size="78.604" font-weight="bold" transform="matrix(.60984 .7862 -.79414 .616 0 1400)"><tspan x="-134.68" y="-1551.813">i</tspan></text><text xml:space="preserve" fill="#005982" font-family="AtkinsonHyperlegible" font-size="78.604" font-weight="bold" transform="matrix(.56548 .81868 -.82695 .57119 0 1400)"><tspan x="-197.497" y="-1543.62">s</tspan></text><text xml:space="preserve" fill="#005982" font-family="AtkinsonHyperlegible" font-size="78.604" font-weight="bold" transform="matrix(.51406 .8519 -.86051 .51925 0 1400)"><tspan x="-252.493" y="-1531.019">t</tspan></text><text xml:space="preserve" fill="#005982" font-family="AtkinsonHyperlegible" font-size="78.604" font-weight="bold" transform="matrix(.46602 .8791 -.88798 .47073 0 1400)"><tspan x="-309.285" y="-1516.548">s</tspan></text></svg>